<?xml version="1.0" encoding="UTF-8"?>
<svg version="1.1" viewBox="0 0 2048 541" width="469" height="124" xmlns="http://www.w3.org/2000/svg">
<path transform="translate(0)" d="m0 0h2048v541h-2048z" fill="transparent"/>
<path transform="translate(695,168)" d="m0 0h17l18 3 18 6 16 9 9 7 10 9 10 12 10 17 6 14 1 4v-9l3-20 5-12 6-9 9-9 14-9 14-6 19-5 16-2h27l20 3 22 6 17 7 1 1v6l-15 31-9 16-17-7-14-4-11-2h-18l-9 3-3 4-1 7 3 6 8 5 38 13 19 9 14 10 9 10 8 15 2 1v-133l1-1h62l15 1v11l-1 13 5-3 9-8 16-10 12-5 16-4 9-1h17l18 3 15 5 16 8 12 9 10 9 13 17 8 14 3 2 3-11 10-14 11-12 10-9 15-9 13-6 15-4 16-2h17l18 3 17 6 16 9 11 8 2 1v-20l11-1h59l8 1v226l-3 1h-73l-1-1v-24l-5 3-11 10-16 9-15 6-16 3-7 1h-10l-20-3-16-5-16-8-10-7-10-9-7-7-11-15-6-11-3 1-6 11-14 18-8 8-12 9-16 9-19 6-21 3h-10l-24-4-16-6-12-6-13-10h-2l-1 132-1 1h-77l-1-157-1-1-4 9-7 11-8 8-14 9-14 6-14 4-20 3-12 1h-16l-21-3-19-5-20-8-13-8-8-6 1-6 10-17 15-25 5-7 6 4 14 9 15 7 13 4 11 1 12-2 6-5 2-5v-7l-4-6-16-8-24-10-16-9-11-8-10-9-9-12 1 11v15l-3 24-7 21-9 17-8 11-9 10-12 11-15 9-12 5-12 4-22 3h-10l-24-4-16-6-13-7-13-10-2-1v96l-1 39h-77v-341l26-1h35l16 1 1 3-1 19 2 2 16-14 16-9 18-6z" fill="#00BB6F"/>
<path transform="translate(379,168)" d="m0 0h19l17 3 19 7 14 8 12 9 1-4v-16l11-1h60l7 1 1 26-1 200-2 1h-74l-1-1-1-22h-3l-7 7-10 7-17 9-17 5-16 2h-9l-20-3-16-5-16-8-10-7-10-9-7-7-10-14-10-19-6-20-2-13v-31l3-17 4-14 5-12-6 11-17 33-13 25-10 19-15 29-10 19-14 27-12 23-13 25-12 22-14 28-12 22-3 3h-89l8-17 10-19 21-41 13-25 12-22 12-24-1-7-13-24-14-24-9-17-12-21-25-45-12-21-13-23-6-9v-2l8-1h81l6 9 15 28 10 18 14 26 10 18 8 14 3 2 3-10 13-28 16-34 12-26 8-16 2-1h85l4 2-20 35-3 8 18-22 11-9 16-9 12-5 13-4z" fill="#00BB6F"/>
<path transform="translate(1686,22)" d="m0 0h77l1 229 4-2 15-16 55-55 6-4h100l-2 4-16 15-88 88 1 5 91 91h3l-4-12v-14l3-13 6-11 11-11 16-8 11-2h8l15 4 10 6 8 7 9 14 4 11 1 6v8l-3 12-6 11-9 10-7 6-10 5-11 3h-11l-15-4-5-2-98-1-6-4-82-82-3-2-1 19-1 68-1 1h-76l-1-1v-174l-4 4-10 18-5-2-12-6-18-3h-12l-14 4-10 7-6 8-6 16-2 11-1 116-2 2h-75l-1-1v-226l24-1h51l3 1v31l19-19 15-10 14-6 14-3h16l18 4 3 1 1-150z" fill="#00BB6F"/>
<path transform="translate(1356,236)" d="m0 0h18l12 3 13 7 11 11 6 12 3 12v13l-4 16-5 9-8 10-11 7-12 4-7 1h-15l-15-4-10-6-7-7-8-14-3-12v-19l3-12 5-9 9-10 8-6 13-5z" fill="#fffeff"/>
<path transform="translate(400,236)" d="m0 0h18l12 3 13 7 11 11 6 12 3 12v13l-4 16-5 9-9 10-8 6-10 4-11 2h-15l-15-4-11-7-8-9-7-14-2-8v-20l3-12 6-11 11-11 14-7z" fill="#fffeff"/>
<path transform="translate(669,236)" d="m0 0h20l11 3 12 6 10 9 6 10 4 13v20l-4 13-7 12-5 6-10 7-10 4-10 2h-14l-15-4-10-6-9-9-6-10-4-13-1-13 2-14 5-12 6-8 9-8 12-6z" fill="#fffeff"/>
<path transform="translate(1106,236)" d="m0 0h19l12 3 11 6 10 9 6 10 3 8 1 5v19l-3 12-6 11-9 10-8 6-10 4-10 2h-14l-15-4-11-7-8-8-6-10-4-14v-20l3-11 6-12 9-9 10-6z" fill="#fffeff"/>
</svg>
